<svg xmlns="http://www.w3.org/2000/svg" xmlns:xlink="http://www.w3.org/1999/xlink" viewBox="0 0 823.74 566.7" id="building-website">
  <defs>
    <linearGradient id="e" x1="382.12" x2="382.12" y1="410.38" y2="563.86" gradientUnits="userSpaceOnUse">
      <stop offset="0" stop-opacity=".4"></stop>
      <stop offset="1" stop-color="#fff" stop-opacity="0"></stop>
    </linearGradient>
    <linearGradient id="a" x1="170.88" x2="679.23" y1="-23.34" y2="550.13" gradientUnits="userSpaceOnUse">
      <stop offset=".02" stop-color="#fff" stop-opacity="0"></stop>
      <stop offset="1" stop-color="#fff"></stop>
    </linearGradient>
    <linearGradient xlink:href="#a" id="f" x1="349.37" x2="367.46" y1="631.94" y2="-155"></linearGradient>
    <linearGradient xlink:href="#a" id="g" x1="229.96" x2="248.05" y1="716.09" y2="-70.85"></linearGradient>
    <linearGradient xlink:href="#a" id="h" x1="455.61" x2="473.7" y1="698.25" y2="-88.69"></linearGradient>
    <linearGradient xlink:href="#a" id="i" x1="455.23" x2="473.32" y1="784.74" y2="-2.2"></linearGradient>
    <linearGradient xlink:href="#a" id="j" x1="461.1" x2="479.19" y1="587.79" y2="-199.14"></linearGradient>
    <linearGradient id="b" x1="536.01" x2="332.05" y1="592.9" y2="45.52" gradientUnits="userSpaceOnUse">
      <stop offset=".58"></stop>
      <stop offset=".78" stop-opacity=".16"></stop>
    </linearGradient>
    <linearGradient xlink:href="#b" id="k" x1="370.59" x2="166.63" y1="654.54" y2="107.15"></linearGradient>
    <linearGradient xlink:href="#b" id="l" x1="613.77" x2="409.81" y1="563.93" y2="16.54"></linearGradient>
    <linearGradient id="c" x1="449.44" x2="467.16" y1="170.77" y2="170.77" gradientUnits="userSpaceOnUse">
      <stop offset="0" stop-color="#ecc4d7"></stop>
      <stop offset=".42" stop-color="#efd4d1"></stop>
      <stop offset="1" stop-color="#f2eac9"></stop>
    </linearGradient>
    <linearGradient xlink:href="#c" id="m" x1="433.56" x2="441.9" y1="192.47" y2="192.47"></linearGradient>
    <linearGradient id="n" x1="437.46" x2="454.04" y1="182.41" y2="188.75" gradientUnits="userSpaceOnUse">
      <stop offset="0" stop-color="#68e1fd"></stop>
      <stop offset=".01" stop-color="#67ddf9"></stop>
      <stop offset=".12" stop-color="#5cb3ce"></stop>
      <stop offset=".24" stop-color="#538ea9"></stop>
      <stop offset=".37" stop-color="#4c718b"></stop>
      <stop offset=".5" stop-color="#465a73"></stop>
      <stop offset=".63" stop-color="#424a63"></stop>
      <stop offset=".79" stop-color="#404059"></stop>
      <stop offset=".99" stop-color="#3f3d56"></stop>
    </linearGradient>
    <linearGradient id="d" x1="421.12" x2="472.68" y1="221.83" y2="218.96" gradientUnits="userSpaceOnUse">
      <stop offset=".36" stop-color="#00272e"></stop>
      <stop offset="1" stop-color="#69b9eb" stop-opacity="0"></stop>
    </linearGradient>
    <linearGradient xlink:href="#c" id="o" x1="264.4" x2="284.66" y1="440.44" y2="440.44"></linearGradient>
    <linearGradient xlink:href="#c" id="p" x1="297.8" x2="306.13" y1="460.74" y2="460.74"></linearGradient>
    <linearGradient xlink:href="#d" id="q" x1="308.7" x2="273.72" y1="493.61" y2="489.24"></linearGradient>
    <linearGradient xlink:href="#d" id="r" x1="290.96" x2="299.09" y1="468.46" y2="468.46"></linearGradient>
  </defs>
  <path fill="#68e1fd" d="M735.14 114.12c7.87 44.81-37.12 89-23.22 132.28 8 25 32 40.59 52.69 56.67 32.88 25.5 63.22 62.55 58.68 103.91-4.91 44.61-47.39 76.15-89.61 91.36-158.37 57-700.71 157.13-732.82-95.62-6.12-48.31 21.63-96.18 52.77-133.62C78.4 239.33 216.37 105.53 266.8 80.55c224.64-111.31 445.16-98.33 468.34 33.57Z" opacity=".18"></path>
  <path fill="#000405" d="M459.96 49.43s297-2.59 247.18 118.9c-38.59 94 5.51 100.89 19.3 146.35s-2.22 97.25-35.48 121.79-166.13 20.2-166.13 56.57-37 23.07-37 23.07h-232.9l42.54-128.28Z" opacity=".05"></path>
  <path fill="#68e1fd" d="M254.93 501.86h250.01v14.25H254.93zM297.47 387.82h169.28v114.04H297.47z"></path>
  <path fill="#68e1fd" d="M297.47 387.82h169.28v114.04H297.47z"></path>
  <path fill="url(#e)" d="M297.47 387.82h169.28v114.04H297.47z" style="isolation:isolate"></path>
  <path fill="#68e1fd" d="M690.96 65.18v298.66A65.16 65.16 0 0 1 625.74 429h-496a65.16 65.16 0 0 1-65.16-65.16V65.18A65.17 65.17 0 0 1 129.74 0h496a65.18 65.18 0 0 1 65.22 65.18Z"></path>
  <path fill="url(#a)" d="M691.22 81.25v283H64.91v-283a65.17 65.17 0 0 1 65.16-65.18H626a65.18 65.18 0 0 1 65.22 65.18Z" style="isolation:isolate" transform="translate(-.26 -16.07)"></path>
  <path fill="url(#f)" d="M140.27 59.05h442.54v87.27H140.27z" style="isolation:isolate"></path>
  <path fill="url(#g)" d="M140.27 157.46h201.02v175.77H140.27z" style="isolation:isolate"></path>
  <path fill="url(#h)" d="M355.49 157.46h223.75v58.7H355.49z" style="isolation:isolate"></path>
  <path fill="url(#i)" d="M355.49 227.3h223.75V286H355.49z" style="isolation:isolate"></path>
  <path fill="url(#j)" d="M355.49 297.14h223.75v36.09H355.49z" style="isolation:isolate"></path>
  <path fill="#68e1fd" d="M482.96 543.37h9.55l-29.39-370.23-8.07 2.17 1.83 24.19-29 1.83-2.23-28.19-8.07 2.17 27.92 368.06h9.55l-3.33-42 28-1.72-.42-6.63-28.11 1.73-2.39-30 28.74-1.82-.41-6.63-28.85 1.78-2.38-30.05 28.18-1.79Zm-54.55-335.44 29-1.85 2.28 30.06-28.87 1.83Zm2.91 36.66 28.85-1.85 2.28 30.19-28.71 1.8Zm2.93 36.73 28.7-1.84 2.44 32.09-28.65 1.74Zm3.06 38.6 28.58-1.71 2.12 28-28.47 1.81Zm2.75 34.72 28.45-1.81 2.28 30.1-28.34 1.79Zm5.31 66.77-2.4-30.1 28.33-1.81 2.28 30.12ZM239.82 196.65v-23.51h-5.89v23.51h-28.65v7.28h28.65v325.49h5.89V241.83l34.92-37.9h26.74v-7.32Zm0 34.89v-27.61h26.56ZM530.74 196.65v-23.51h-5.89v23.51h-56.59v7.28h24.57l32 34.7v290.79h5.91V203.93h33.74v-7.32Zm-5.89 31.87-23.67-24.59h23.65Z"></path>
  <g opacity=".61">
    <path fill="url(#b)" d="M483.22 559.44h9.55l-29.39-370.23-8.07 2.17 1.83 24.19-29 1.83-2.23-28.19-8.07 2.17 27.92 368.06h9.55l-3.33-42 28-1.72-.42-6.63-28.11 1.73-2.39-30L477.8 479l-.41-6.63-28.85 1.78-2.38-30.05 28.18-1.79ZM428.67 224l29-1.85 2.28 30.06-28.87 1.83Zm2.91 36.66 28.85-1.85 2.28 30.19-28.71 1.8Zm2.93 36.73 28.7-1.84 2.44 32.09-28.65 1.74Zm3.06 38.6 28.58-1.71 2.12 28-28.47 1.81Zm2.75 34.72 28.45-1.81 2.28 30.1-28.34 1.79Zm5.31 66.77-2.4-30.1 28.33-1.81 2.28 30.12Z" transform="translate(-.26 -16.07)"></path>
    <path fill="url(#k)" d="M240.08 212.72v-23.51h-5.89v23.51h-28.65V220h28.65v325.49h5.89V257.9L275 220h26.74v-7.32Zm0 34.89V220h26.56Z" transform="translate(-.26 -16.07)"></path>
    <path fill="url(#l)" d="M531 212.72v-23.51h-5.89v23.51h-56.59V220h24.57l32 34.7v290.79H531V220h33.74v-7.32Zm-5.89 31.87L501.44 220h23.65Z" transform="translate(-.26 -16.07)"></path>
  </g>
  <path fill="#68e1fd" d="m469.14 271.57-.68 6.1h-14.09s-1.15-3.52 1.42-4.4a24 24 0 0 1 4.34-1.09Z"></path>
  <path fill="url(#c)" d="M449.75 161.3a45.81 45.81 0 0 0 1 16.33 7.21 7.21 0 0 0 6.77 2.71v4.06h6.78l2.84-20.32s-10.61-13.55-17.39-2.78Z" transform="translate(-.26 -16.07)"></path>
  <path fill="#333" d="M454.24 147.26a20.15 20.15 0 0 1 2 6.78s1.35-2.71 2-1.36-1.35 4.07-1.35 4.07l2 3.38h6.85s3.39-14.83 1.49-16.87-3.18-2-3.18-2 0-2-4.07-2-9.48 0-11.51 3.39-2.71 2-2.71 2 1.15 2.51 2.91 1.9c.42-.1 4.89-1.32 5.57.71Z"></path>
  <path fill="#68e1fd" d="M457.28 168.33h11.39s4.81 1 5.48 12.53a227.52 227.52 0 0 1 0 23.65v18.9l-5.48-1.83-20.33 4.54-2-27.71a14.65 14.65 0 0 1-10.46-6.48 16.83 16.83 0 0 1-1.76-15.24l14.15 7.45.75-4a17 17 0 0 1 6.77-10.78Z"></path>
  <path fill="#fcfdff" d="m436.01 172.94-3.38-10.84 13.48-2.04 4.54 14.77-2.51 8.88-8.06-4.07-4.07-6.7z"></path>
  <path fill="url(#m)" d="M433.56 195.1a10.67 10.67 0 0 1 2.71-6.09l.68.67h4.27l.68 2.65-1.56 2.23a5.88 5.88 0 0 1-6.78.54Z" transform="translate(-.26 -16.07)"></path>
  <path fill="url(#n)" d="m440.08 179.64 3.32 8.81 4.74-4.74-8.06-4.07z"></path>
  <path fill="url(#d)" d="M446.37 214s10.84-4.07 10.84-10.84l2.72 31.11L448.4 237Z" opacity=".61" transform="translate(-.26 -16.07)"></path>
  <path fill="#333" d="m448.14 220.9-2.03 33.74 2.71 17.61h8.13l1.35-29.06 4.74-12.2-3.38 41.26 9.48.68 4.67-54.74-5.35-2.03-20.32 4.74z"></path>
  <path fill="#68e1fd" d="M456.54 272.25v6.78l-14.29-5.1s0-3.73 2.77-3.73a23.09 23.09 0 0 1 4.47.41ZM270.04 539.85l.7 6.08h14.1s1.15-3.52-1.43-4.4a23.05 23.05 0 0 0-4.33-1.08Z"></path>
  <path fill="url(#o)" d="M280.05 428.28a46 46 0 0 1 4.61 15.59c-.81 3.86-5.56 4.74-5.56 4.74l1.29 3.86-6.77 2.37-9.22-18.29s5.76-16.33 15.65-8.27Z" transform="translate(-.26 -16.07)"></path>
  <path fill="#333" d="M275.93 415.67a19.73 19.73 0 0 0 0 6.77s-2.17-2.1-2.37-.61 2.57 3.39 2.57 3.39l-.81 3.86-6.16 2.1s-8-13-6.78-15.51 1.83-2.78 1.83-2.78-.68-1.9 3.18-3.25 9-3 12-.47 3.18 1 3.18 1 0 2.71-2.17 2.78c.21.28-4.47.55-4.47 2.72Z"></path>
  <path fill="#68e1fd" d="M282.23 436.47h-11.38s-4.81 1-5.49 12.53a227.33 227.33 0 0 0 0 23.64v18.9l5.49-1.83 20.32 4.54 2-27.7a14.78 14.78 0 0 0 10.23-6.91 16.91 16.91 0 0 0 1.76-15.25L291 451.84l-.75-4a17 17 0 0 0-6.77-10.77Z"></path>
  <path fill="#fcfdff" d="m303.17 441.14 3.38-10.77-13.55-2.03-4.47 14.77 2.44 8.87 8.13-4.06 4.07-6.78z"></path>
  <path fill="url(#p)" d="M306.13 463.38a10.57 10.57 0 0 0-2.71-6.1l-.67.68h-4.27l-.68 2.64 1.56 2.23a5.88 5.88 0 0 0 6.77.55Z" transform="translate(-.26 -16.07)"></path>
  <path fill="url(#q)" d="M293.26 482.48s-10.84-4.06-10.84-10.84l.88 36.72 7.93 1.76Z" opacity=".61" transform="translate(-.26 -16.07)"></path>
  <path fill="#333" d="m290.97 489.17 2.03 33.74-2.64 17.61h-8.13l-1.35-29.06-4.75-12.2 3.39 41.26-9.48.68-4.74-54.74 5.41-2.03 20.26 4.74z"></path>
  <path fill="#68e1fd" d="M282.64 540.52v4.75l14.83-.68s-.67-4.74-3.38-4.74a8.28 8.28 0 0 1-4.2-.95Z"></path>
  <path fill="#fff" d="M522.25 145.93h-34.62a17.82 17.82 0 0 1-17.81-17.82v-7.59a17.81 17.81 0 0 1 17.81-17.81h34.62a17.81 17.81 0 0 1 17.82 17.81v7.59a17.82 17.82 0 0 1-17.82 17.82Z"></path>
  <path fill="#fff" d="M473.81 155.32s14.16.68 17.55-9.48h10.5s-7.04 12.87-28.05 9.48Z"></path>
  <path fill="#020202" d="M482.07 125.46h47.56a1.22 1.22 0 0 1 1.22 1.22v.95a1.22 1.22 0 0 1-1.22 1.22h-47.56a1.22 1.22 0 0 1-1.22-1.22v-.95a1.22 1.22 0 0 1 1.22-1.22ZM482.07 133.59h47.56a1.22 1.22 0 0 1 1.22 1.22v.95a1.22 1.22 0 0 1-1.22 1.22h-47.56a1.22 1.22 0 0 1-1.22-1.22v-.95a1.22 1.22 0 0 1 1.22-1.22ZM482.07 141.65h47.56a1.22 1.22 0 0 1 1.22 1.22v.95a1.22 1.22 0 0 1-1.22 1.22h-47.56a1.22 1.22 0 0 1-1.22-1.22v-.95a1.22 1.22 0 0 1 1.22-1.22ZM482.07 149.78H508a1.22 1.22 0 0 1 1.21 1.22v1a1.22 1.22 0 0 1-1.21 1.22h-25.93a1.22 1.22 0 0 1-1.22-1.22v-1a1.22 1.22 0 0 1 1.22-1.22Z" opacity=".15" style="isolation:isolate" transform="translate(-.26 -16.07)"></path>
  <path fill="#fff" d="M206.63 416.14h34.62a17.8 17.8 0 0 0 17.74-17.48v-7.92a17.81 17.81 0 0 0-17.81-17.81h-34.55a17.82 17.82 0 0 0-17.82 17.82v7.92a17.82 17.82 0 0 0 17.82 17.47ZM254.93 425.76s-14.16.68-17.55-9.48h-10.43s6.79 12.73 27.98 9.48Z"></path>
  <path fill="#020202" d="M247.2 399.09h-47.56a1.22 1.22 0 0 1-1.22-1.22v-.95a1.22 1.22 0 0 1 1.22-1.22h47.56a1.22 1.22 0 0 1 1.22 1.22v.95a1.22 1.22 0 0 1-1.22 1.22ZM247.2 407.28h-47.56a1.22 1.22 0 0 1-1.22-1.22v-.95a1.22 1.22 0 0 1 1.22-1.21h47.56a1.22 1.22 0 0 1 1.22 1.21v.95a1.22 1.22 0 0 1-1.22 1.22ZM247.2 415.34h-47.56a1.22 1.22 0 0 1-1.22-1.21v-.95a1.22 1.22 0 0 1 1.22-1.22h47.56a1.22 1.22 0 0 1 1.22 1.22v.95a1.22 1.22 0 0 1-1.22 1.21ZM247.2 423.47h-25.95a1.22 1.22 0 0 1-1.22-1.22v-.94a1.22 1.22 0 0 1 1.22-1.22h25.95a1.22 1.22 0 0 1 1.22 1.22v.94a1.22 1.22 0 0 1-1.22 1.22Z" opacity=".15" style="isolation:isolate" transform="translate(-.26 -16.07)"></path>
  <path fill="url(#r)" d="M299.09 464.66s-2 8.81-4.74 7.46a6.76 6.76 0 0 1-3.39-4.07Z" opacity=".61" transform="translate(-.26 -16.07)"></path>
</svg>
