<svg xmlns="http://www.w3.org/2000/svg" xmlns:xlink="http://www.w3.org/1999/xlink" id="website-setting" viewBox="0 0 773.54 594.3">
  <defs>
    <linearGradient id="linear-gradient" x1="94.96" x2="396.6" y1="359.9" y2="667.53" gradientUnits="userSpaceOnUse">
      <stop offset="0" stop-opacity="0"></stop>
      <stop offset=".35" stop-color="#13121a" stop-opacity=".3"></stop>
      <stop offset=".74" stop-color="#2d2b3d" stop-opacity=".71"></stop>
      <stop offset=".99" stop-color="#3f3d56"></stop>
    </linearGradient>
    <linearGradient xlink:href="#linear-gradient" id="linear-gradient-2" x1="131.07" x2="239.09" y1="425.32" y2="697.87"></linearGradient>
    <linearGradient xlink:href="#linear-gradient" id="linear-gradient-3" x1="726.57" x2="403.38" y1="410.3" y2="531.2"></linearGradient>
    <linearGradient xlink:href="#linear-gradient" id="linear-gradient-4" x1="428.69" x2="425.52" y1="653.41" y2="497.86"></linearGradient>
    <linearGradient xlink:href="#linear-gradient" id="linear-gradient-5" x1="522.12" x2="-68.52" y1="335.05" y2="637.4"></linearGradient>
    <linearGradient xlink:href="#linear-gradient" id="linear-gradient-6" x1="244.24" x2="305.56" y1="281" y2="377.91"></linearGradient>
    <linearGradient xlink:href="#linear-gradient" id="linear-gradient-7" x1="560.81" x2="182.41" y1="127.05" y2="702.34"></linearGradient>
    <linearGradient id="linear-gradient-8" x1="652.51" x2="333.77" y1="334.31" y2="369.9" gradientUnits="userSpaceOnUse">
      <stop offset="0" stop-color="#68e1fd"></stop>
      <stop offset=".15" stop-color="#64cfeb"></stop>
      <stop offset=".44" stop-color="#58a1bc"></stop>
      <stop offset=".85" stop-color="#465871"></stop>
      <stop offset=".99" stop-color="#3f3d56"></stop>
    </linearGradient>
    <linearGradient xlink:href="#linear-gradient" id="linear-gradient-9" x1="334.63" x2="3.52" y1="371.8" y2="1106.68"></linearGradient>
    <linearGradient id="linear-gradient-10" x1="603.62" x2="592.65" y1="185.74" y2="213.12" gradientUnits="userSpaceOnUse">
      <stop offset="0" stop-color="#ecc4d7"></stop>
      <stop offset=".16" stop-color="#edcbd5"></stop>
      <stop offset=".42" stop-color="#efd4d1"></stop>
      <stop offset=".7" stop-color="#f2eac9"></stop>
    </linearGradient>
    <linearGradient xlink:href="#linear-gradient-10" id="linear-gradient-11" x1="4466.36" x2="4456.74" y1="1791.48" y2="1815.5" gradientTransform="scale(-1 1)rotate(-45 -4.42 7154.465)"></linearGradient>
    <linearGradient id="linear-gradient-12" x1="576.04" x2="653.11" y1="274.68" y2="274.68" gradientUnits="userSpaceOnUse">
      <stop offset=".02" stop-color="#fff" stop-opacity="0"></stop>
      <stop offset=".11" stop-color="#fff" stop-opacity=".07"></stop>
      <stop offset=".31" stop-color="#fff" stop-opacity=".26"></stop>
      <stop offset=".59" stop-color="#fff" stop-opacity=".55"></stop>
      <stop offset=".94" stop-color="#fff" stop-opacity=".96"></stop>
      <stop offset=".98" stop-color="#fff"></stop>
    </linearGradient>
    <linearGradient id="linear-gradient-13" x1="595.95" x2="611.96" y1="394.42" y2="394.42" gradientUnits="userSpaceOnUse">
      <stop offset="0" stop-color="#183866"></stop>
      <stop offset="1" stop-color="#1a7fc1"></stop>
    </linearGradient>
    <linearGradient xlink:href="#linear-gradient-13" id="linear-gradient-14" x1="570.54" x2="583.82" y1="454.62" y2="454.62"></linearGradient>
    <linearGradient xlink:href="#linear-gradient-13" id="linear-gradient-15" x1="606.04" x2="509.94" y1="388.7" y2="440.15"></linearGradient>
    <linearGradient xlink:href="#linear-gradient-13" id="linear-gradient-16" x1="617.25" x2="582.1" y1="438.03" y2="456.85"></linearGradient>
    <linearGradient xlink:href="#linear-gradient-10" id="linear-gradient-17" x1="620.18" x2="592.28" y1="436.68" y2="451.62"></linearGradient>
    <linearGradient xlink:href="#linear-gradient-10" id="linear-gradient-18" x1="613.26" x2="584.04" y1="474.9" y2="490.55"></linearGradient>
    <linearGradient xlink:href="#linear-gradient-10" id="linear-gradient-19" x1="642.25" x2="561.55" y1="249.03" y2="292.23"></linearGradient>
    <linearGradient xlink:href="#linear-gradient" id="linear-gradient-20" x1="365.45" x2="12.34" y1="72.54" y2="534.59"></linearGradient>
    <linearGradient xlink:href="#linear-gradient" id="linear-gradient-21" x1="524.49" x2="632.7" y1="502.47" y2="783"></linearGradient>
    <linearGradient id="linear-gradient-22" x1="295.87" x2="332.65" y1="395.18" y2="630.55" gradientUnits="userSpaceOnUse">
      <stop offset="0" stop-color="#68e1fd"></stop>
      <stop offset="1" stop-color="#69b9eb"></stop>
    </linearGradient>
    <linearGradient id="linear-gradient-23" x1="248.23" x2="302.69" y1="446.59" y2="301.76" gradientUnits="userSpaceOnUse">
      <stop offset="0" stop-opacity="0"></stop>
      <stop offset=".56" stop-color="#13121a" stop-opacity=".3"></stop>
      <stop offset=".91" stop-color="#37364c" stop-opacity=".88"></stop>
      <stop offset=".99" stop-color="#3f3d56"></stop>
    </linearGradient>
    <linearGradient xlink:href="#linear-gradient" id="linear-gradient-24" x1="736.77" x2="701.44" y1="438.02" y2="503.63"></linearGradient>
    <linearGradient xlink:href="#linear-gradient" id="linear-gradient-25" x1="64.82" x2="170.81" y1="442.68" y2="461.86"></linearGradient>
  </defs>
  <path fill="#68e1fd" d="M767.43,424.73c-1.44,42.12,27.85,85.28,11.25,124-4.94,11.52-13.53,20.87-23.91,28a94.67,94.67,0,0,1-28.84,13c-22.28,5.91-45.71,5.08-68.74,4.5-54.35-1.37-149.9.37-246.5,1.5-71.46.85-143.49,1.35-199.8,0-39.44-.93-71.16-2.78-89.61-6a74.54,74.54,0,0,1-11.43-2.78c-68.65-24.37-36.24-68-37.53-88.2-1.65-25.95-23.38-45.41-35.95-68.18C17.85,397,20.44,352.84,42.76,321.67c21.57-30.15,57.37-46.14,85.88-69.82,33.86-28.13,57-66.73,84.31-101.24C252,101.28,315.83,66.84,374.23,45.15c56.64-21,126.9-9.92,169.39,34.65,20.73,21.75,35.46,49.82,60.68,66.16,30.75,19.93,70.46,18.28,105,30.63,61.5,22,100.33,94,85,157.45C786.83,364.81,768.52,393.09,767.43,424.73Z" opacity=".18" transform="translate(-24.06 -2.25)"></path>
  <polygon fill="#68e1fd" points="347.92 572.73 193.2 572.46 75.75 572.46 75.75 385.74 207.73 301.18 347.92 385.74 347.92 572.73"></polygon>
  <polygon fill="url(#linear-gradient)" points="347.92 572.73 193.2 572.46 75.75 572.46 75.75 385.74 207.73 301.18 347.92 385.74 347.92 572.73" style="isolation:isolate"></polygon>
  <path fill="url(#linear-gradient-2)" d="M188.71,468.75v105l-28.43.31-43-81.51H122l4.71-7.46a16.84,16.84,0,0,0,6.35,4.86l-.41,10.95,8.7.41.43-11.18a17.21,17.21,0,0,0,6.47-4.46l4.35,8.27,6.56-10.38L154.68,475a50.25,50.25,0,0,0,2.82-10.54l6.91.31.58-15.1-7-.32A50.37,50.37,0,0,0,155.84,439l5.34-8.46-5.75-10.94Z" style="isolation:isolate" transform="translate(-24.06 -2.25)"></path>
  <polygon fill="#68e1fd" points="725.41 572.73 570.69 572.46 453.24 572.46 453.24 385.74 585.22 301.18 725.41 385.74 725.41 572.73"></polygon>
  <polygon fill="url(#linear-gradient-3)" points="725.41 572.73 570.69 572.46 453.24 572.46 453.24 385.74 585.22 301.18 725.41 385.74 725.41 572.73" style="isolation:isolate"></polygon>
  <path fill="url(#linear-gradient-4)" d="M754.77,576.7a94.67,94.67,0,0,1-28.84,13c-22.28,5.91-45.71,5.08-68.74,4.5-54.35-1.37-149.9.37-246.5,1.5H210.89c-39.44-.93-71.16-2.78-89.61-6-11-6-24.19-14.45-21.47-15l88.9-1c.23-.05,6.15,1.25,6.39,1.25l484.31,3.6c.17,0-.14-4.21,0-4.18l72.38.58A7,7,0,0,1,754.77,576.7Z" style="isolation:isolate" transform="translate(-24.06 -2.25)"></path>
  <polygon fill="#68e1fd" points="655.36 576.34 376.39 575.85 164.65 575.85 164.65 239.2 402.6 86.74 655.36 239.2 655.36 576.34"></polygon>
  <polygon fill="url(#linear-gradient-5)" points="655.36 576.34 376.39 575.85 164.65 575.85 164.65 239.2 402.6 86.74 655.36 239.2 655.36 576.34" style="isolation:isolate"></polygon>
  <path fill="url(#linear-gradient-6)" d="M246.06,400.94l57.32-81.4s-7.93-39.31,19.07-40.85l3.59,3.59-11.27,16,13.82,19.63L337.22,297l3.59,3.59s1.06,34.54-24.05,33.9l-59.08,83.89s-7.82,8.66-11.62-2.12S246.06,400.94,246.06,400.94Z" style="isolation:isolate" transform="translate(-24.06 -2.25)"></path>
  <polygon fill="#68e1fd" points="655.36 572.15 655.36 576.34 402.6 576.34 402.6 570.57 402.55 86.71 655.3 239.17 655.36 572.15"></polygon>
  <polygon fill="url(#linear-gradient-7)" points="402.6 120.03 655.31 264.3 655.31 239.17 402.56 86.71 402.6 120.03" style="isolation:isolate"></polygon>
  <path fill="url(#linear-gradient-8)" d="M584.29,253.83a303.84,303.84,0,0,1-7.49,51.8c-2.18,9.34-4.8,18.58-6.55,28-1.8,9.75-2.66,19.65-3.51,29.52q-3.39,39.22-6.77,78.43c-.16,1.84-.14,4.07,1.42,5.06a3.41,3.41,0,0,0,2.41.37c2.8-.51,4.59-3.21,5.91-5.73,7.07-13.53,3.3,67.87,12.09,55.39,3.46-4.9,14.64-106.18,17.68-111.36,5.94-10.13,6.58-22.39,9.5-33.78,6.4-25,24.12-46.5,27-72.11.54-4.72.56-9.52,1.68-14.14,1.35-5.61,4.25-10.7,6.5-16a73,73,0,0,0,5.63-23.73c.22-3.33-.6-7.7-3.91-8.2-3.82-.58-5.61,4.55-5.88,8.41-.71,10.23-1.28,20.95-6.59,29.72s-17.13,14.56-26.1,9.59c-5.24-2.9-8.28-8.76-9.37-14.65s-.5-12-.16-17.93a214,214,0,0,0-.71-33.1c-.28-2.86-2.16-15.82-7.06-13.55-3.13,1.45-3.47,18.65-3.77,21.91C584.89,223.08,585.17,238.48,584.29,253.83Z" style="isolation:isolate" transform="translate(-24.06 -2.25)"></path>
  <path fill="#68e1fd" d="M385.28,115.5S312,4.08,204.87,40s-14.76,141-14.76,141,29.7-43.66-1.4-62.73C142.63,90,165.26,41,240.57,37.48,342.87,32.77,372,124,372,124Z" transform="translate(-24.06 -2.25)"></path>
  <path fill="#68e1fd" d="M109.85 46.23a298.38 298.38 0 0 1 33.31 7.07c15.14 4.37 34.31 0 34.31 0s-10.1 12.62-33.81 11.77A41.24 41.24 0 0 1 109.85 46.23ZM322.56 55.67s-19.65-27.52-6-43.42 34.91-8.08 34.91-8.08 1 13.46-15.82 16.82-17.07 8.12-16.82 17.5c.39 15.15 19.43 28 19.43 28Z" transform="translate(-24.06 -2.25)"></path>
  <polygon fill="url(#linear-gradient-9)" points="164.65 393.66 402.6 538.78 402.6 576.34 164.65 576.34 164.65 393.66" style="isolation:isolate"></polygon>
  <path fill="url(#linear-gradient-10)" d="M592.42,183.34a.58.58,0,0,1,.4.08,3,3,0,0,1,1.54,2.15c.11-.94,1.46-1.27,2.26-.76a4.29,4.29,0,0,1,1.49,2.36,2,2,0,0,1,2.84-.5,3.37,3.37,0,0,1,1.16,2.94c.18-.93,1.64-1,2.27-.33a3.5,3.5,0,0,1,.55,2.7,4.94,4.94,0,0,0,.24,2.78,12.27,12.27,0,0,0,4.14-.19,2.76,2.76,0,0,1,2,0c.93.58.63,2.13-.26,2.78a7.18,7.18,0,0,1-3.12.92,4.81,4.81,0,0,0-3.28,1.86,9.41,9.41,0,0,1-1,1.78c-1,1-3.64,3.56-5,3-2.58-1-9-4.43-9.05-4.85a42.78,42.78,0,0,1,1.13-10.78c.27-1,.06-2,.35-3C591.33,185.75,591.79,183.5,592.42,183.34Z" transform="translate(-24.06 -2.25)"></path>
  <path fill="url(#linear-gradient-11)" d="M658.62,222a1.79,1.79,0,0,0-2.55-1.8,1.81,1.81,0,0,0-1.61-2.23,2.47,2.47,0,0,0-2,.62c.53-.79-1.38-2.13-2.32-2.07s-3.08,2.35-2.22,2.74c1.23.56.76,1.19-.15,1.47a9,9,0,0,1-2.26-2.76c-.37-.59-.77-1.27-1.45-1.42-1.07-.25-1.95,1.06-1.79,2.14a7.39,7.39,0,0,0,1.57,2.86,4.81,4.81,0,0,1,1,3.63,9.39,9.39,0,0,0-.54,2c0,1.43.14,3.58,1.46,4.14,2.55,1.1,4.81,1.38,7.37,2.48.34.14,1.4-1.91,1.72-2.18a14.66,14.66,0,0,0,4.35-5.51C660.76,222.73,659.36,221.44,658.62,222Z" transform="translate(-24.06 -2.25)"></path>
  <path fill="#68e1fd" d="M643.66,231.06s7,.22,9.45,2.7a57,57,0,0,0-2.05,9.45c-.2,3.37-3.35,19.8-7.4,31.5S627.23,351,627.23,351s-45.23-2.1-50-8.81,5.66-37.77,5.66-37.77,6.19-49.28,6.67-57.38-.14-41.74,0-46.92,11.42,2.53,11.11,4.93S605,252.88,605,252.88s15.6,19.73,23.7,16.13S643.66,231.06,643.66,231.06Z" transform="translate(-24.06 -2.25)"></path>
  <path fill="url(#linear-gradient-12)" d="M643.66,231.06s7,.22,9.45,2.7a57,57,0,0,0-2.05,9.45c-.2,3.37-3.35,19.8-7.4,31.5S627.23,351,627.23,351s-45.23-2.1-50-8.81,5.66-37.77,5.66-37.77,6.19-49.28,6.67-57.38-.14-41.74,0-46.92,11.42,2.53,11.11,4.93S605,252.88,605,252.88s15.6,19.73,23.7,16.13S643.66,231.06,643.66,231.06Z" style="isolation:isolate" transform="translate(-24.06 -2.25)"></path>
  <path fill="#fff" d="M577.28,342.18s-9.46,54-5.41,64.17S594.6,440,594.6,440l6.17,33.66h13.8s9.73-74.77,9.73-89.17S627.23,351,627.23,351Z" transform="translate(-24.06 -2.25)"></path>
  <path fill="url(#linear-gradient-13)" d="M609,423.22l-13-19.35,8.55-26.35s8.08-8.75,7.42-11.9Z" opacity=".25" transform="translate(-24.06 -2.25)"></path>
  <polygon fill="url(#linear-gradient-14)" points="570.54 437.78 579.89 445.58 583.82 471.45 576.7 471.45 570.54 437.78" opacity=".25"></polygon>
  <path fill="url(#linear-gradient-15)" d="M584.35,343.43,576,401.62S592.6,431.33,604,440l3.93,5.7v3.9l-13.28-10.5s-20.36-27.72-22.27-33.68,1.57-41.39,1.57-41.39l3.38-21.88Z" opacity=".25" transform="translate(-24.06 -2.25)"></path>
  <path fill="url(#linear-gradient-16)" d="M609.12,444.71s3.71-10.12,5.28-12.26,0,4.5,0,4.5l-5.28,12.68s-1.24,1-1.24,0A35.17,35.17,0,0,1,609.12,444.71Z" transform="translate(-24.06 -2.25)"></path>
  <path fill="url(#linear-gradient-17)" d="M614.4,432.45l6.42,4.05L616.54,446l-6.22-4.42S612.72,434.36,614.4,432.45Z" transform="translate(-24.06 -2.25)"></path>
  <path fill="#3f3d56" d="M623,436s-3.22-1.48-3.63-.42-.64,6.58-2.78,10.4-1.44,16.2-1.44,16.2,4.7,1.35,5.72,0,8.66-22.95,8.66-22.95Z" transform="translate(-24.06 -2.25)"></path>
  <path fill="url(#linear-gradient-18)" d="M603.49,473.69l.45,8.15s5.85,3.6,8.79-1l.66-7.16Z" transform="translate(-24.06 -2.25)"></path>
  <path fill="#3f3d56" d="M613.39,479.14s-4.27,4.5-9.45,2.7a1,1,0,0,0-1.52.43c-.67,1-5.79,13.75-5.79,13.75s-1.46,3.49,2.42,6.41,14.34-11.64,14.34-11.64S618.45,483.18,613.39,479.14Z" transform="translate(-24.06 -2.25)"></path>
  <path fill="url(#linear-gradient-19)" d="M615.72,263.76s3.75-2.45,4-3.75-2.45-1-2.66-3,7.3-11,9.52-13.26,5.84-5,9.74-2.88,7.32,2.87,7.6,11-18.52,20.58-18.52,20.58S615.41,273.43,615.72,263.76Z" transform="translate(-24.06 -2.25)"></path>
  <path fill="#3f3d56" d="M639.71,237.47l-7.78-3.95a.61.61,0,0,0-.34-.1c-.2,0-.32.23-.4.42a6.37,6.37,0,0,0-.48,3.34,1.92,1.92,0,0,0-2.16,1.36c-.37,1.5,1.15,2.79,1.49,4.3-.58-.12-1.09.51-1.1,1.11a3.47,3.47,0,0,0,.59,1.66c.8,1.5,1.33,3.41.43,4.87-.76,1.23-2.43,1.88-2.75,3.3.25.36.69-.2,1-.52a1.16,1.16,0,0,1,1.75.32,1.85,1.85,0,0,1-.2,1.95,4.76,4.76,0,0,1-1.59,1.29c-1.13.67-2.6,1.24-3.67.49-.34.84.25,1.73.47,2.6.46,1.82-.73,3.68-.65,5.56a12,12,0,0,0,2.81-.18l.21,2.36a2.7,2.7,0,0,1,1.58-.59c.11.6.21,1.19.31,1.79a5.74,5.74,0,0,0,2.51-.62c.11.44.22.88.32,1.33,3.39-4.22,7.9-7.35,12-10.86,1.23-1.05,2.51-2.3,2.63-3.91a12.61,12.61,0,0,0-.58-3.12c-.43-2.31.41-4.71.06-7a7.11,7.11,0,0,0-2.55-4.38c-.67-.55-1.52-.74-2.19-1.23S640.5,237.86,639.71,237.47Z" transform="translate(-24.06 -2.25)"></path>
  <polygon fill="url(#linear-gradient-20)" points="164.65 264.3 402.6 120.03 402.56 86.71 164.65 239.2 164.65 264.3" style="isolation:isolate"></polygon>
  <path fill="url(#linear-gradient-21)" d="M679.42,574.4v4.18H426.66v-5.76c8.85-12.55,49.34-8.6,61.4-11.19,29.95-6.42,59-17.45,89.84-19.28,8.24-.48,16.64-.28,24.56,2.07,13,3.86,23.74,13.14,36.46,17.81,9.32,3.42,19.38,4.25,28.89,7.07A47.3,47.3,0,0,1,679.42,574.4Z" style="isolation:isolate" transform="translate(-24.06 -2.25)"></path>
  <path fill="url(#linear-gradient-22)" d="M313.16,330.87l-59.07,83.88a12.26,12.26,0,0,1-1.23,1.14,8.29,8.29,0,0,1-5,2.16c-2,0-4-1.33-5.41-5.41a34.72,34.72,0,0,1-1.23-4.42c-1.52-7.61,1.23-10.86,1.23-10.86L299.79,316s-8.15-38.46,22.66-37.27l-13.29,18.89L323,317.19,337.22,297S338.28,331.51,313.16,330.87Z" transform="translate(-24.06 -2.25)"></path>
  <path fill="url(#linear-gradient-23)" d="M313.16,330.87l-59.07,83.88a12.26,12.26,0,0,1-1.23,1.14l-5,2.16c-2,0-4-1.33-5.41-5.41a34.72,34.72,0,0,1-1.23-4.42c4.7,5,8.67,0,8.67,0s49.55-72.77,52.41-76.27S313.16,330.87,313.16,330.87Z" style="isolation:isolate" transform="translate(-24.06 -2.25)"></path>
  <path fill="url(#linear-gradient-24)" d="M694.37,482.85l42.7,11.92a4.67,4.67,0,0,0,5.93-4.5V487.8a12.45,12.45,0,0,0-7.44-11.39l-7.42-3.27.19-4.26c.23-5.16-.82-8.12-5.42-10.48l-10.57-4.88c-3.46-.95-8.1.69-9.43,6.54l-1,4.55-7.17-2.47a6.21,6.21,0,0,0-8.2,5.33l-.31,3.58A11.24,11.24,0,0,0,694.37,482.85Z" style="isolation:isolate" transform="translate(-24.06 -2.25)"></path>
  <path fill="#68e1fd" d="M698.29,482,741,493.94a4.67,4.67,0,0,0,5.93-4.5V487a12.45,12.45,0,0,0-7.44-11.39l-7.42-3.27.18-4.26c.23-5.16-.81-8.12-5.42-10.48l-10.56-4.88c-3.46-.95-8.1.69-9.43,6.54l-1,4.55-7.17-2.47a6.21,6.21,0,0,0-8.21,5.33l-.31,3.57A11.24,11.24,0,0,0,698.29,482Z" transform="translate(-24.06 -2.25)"></path>
  <path fill="url(#linear-gradient-25)" d="M164.41,464.79l.58-15.1-7-.32A50.37,50.37,0,0,0,155.84,439l5.34-8.46-5.75-10.94h-4.71l-.63,8.45a17,17,0,0,0-5.76-4.61l.45-12.2-8.7-.39-.46,12a15.92,15.92,0,0,0-6.32,3.91l-4.47-8.51h-4.71l-1.85,10.39,4.35,8.26a48.61,48.61,0,0,0-3.17,10.78l-6.44-.28-.58,15.07,6.32.29A51,51,0,0,0,121,474.13l-4.72,7.46,1,10.94H122l4.71-7.46a16.84,16.84,0,0,0,6.35,4.86l-.41,10.95,8.7.41.43-11.18a17.21,17.21,0,0,0,6.47-4.46l4.35,8.27,6.56-10.38L154.68,475a50.25,50.25,0,0,0,2.82-10.54ZM147,473c-5.45,8.62-13.74,8.25-18.51-.83-.1-.19-.2-.39-.29-.59-4.46-9.1-3.81-23,1.52-31.48,4.67-7.4,11.43-8.18,16.26-2.51a17.92,17.92,0,0,1,2.24,3.35C153,450,152.49,464.39,147,473Z" style="isolation:isolate" transform="translate(-24.06 -2.25)"></path>
  <path fill="#68e1fd" d="M147.88,493.92l6.56-10.38L150,475a50.18,50.18,0,0,0,2.82-10.55l6.91.32.58-15.1-7-.32a49.81,49.81,0,0,0-2.11-10.4l5.34-8.44-5.75-10.95L145.38,428a17.08,17.08,0,0,0-5.77-4.62l.46-12.19-8.7-.39-.46,12a16,16,0,0,0-6.32,3.91l-4.47-8.51-6.56,10.38,4.34,8.27a49.61,49.61,0,0,0-3.16,10.79l-6.44-.3-.58,15.08,6.32.29a51,51,0,0,0,2.21,11.43l-4.72,7.46,5.75,10.94,4.72-7.46a16.73,16.73,0,0,0,6.34,4.86l-.42,10.95,8.71.41.43-11.18a17.21,17.21,0,0,0,6.47-4.46ZM125.05,440.1c5.45-8.63,13.73-8.25,18.5.84s4.23,23.44-1.22,32.06-13.74,8.25-18.51-.84S119.6,448.72,125.05,440.1Z" transform="translate(-24.06 -2.25)"></path>
</svg>
